<?xml version="1.0" encoding="utf-8"?>
<!-- Generator: Adobe Illustrator 23.0.3, SVG Export Plug-In . SVG Version: 6.00 Build 0)  -->
<svg version="1.1" id="Layer_1" xmlns="http://www.w3.org/2000/svg" xmlns:xlink="http://www.w3.org/1999/xlink" x="0px" y="0px"
	 viewBox="0 0 118.7 40.8" style="enable-background:new 0 0 118.7 40.8;" xml:space="preserve">
<style type="text/css">
	.st0{fill:#1D261E;}
	.st1{fill:#FFFFFF;}
</style>
<circle class="st0" cx="20.4" cy="20.4" r="20.4"/>
<circle class="st1" cx="28.1" cy="20.4" r="5.9"/>
<path class="st1" d="M12.4,29.2h-1.4c-2.1,0-3.8-1.7-3.8-3.8V15.3c0-2.1,1.7-3.8,3.8-3.8h1.4c2.1,0,3.8,1.7,3.8,3.8v10.1
	C16.1,27.5,14.4,29.2,12.4,29.2z"/>
<g>
	<path class="st0" d="M63.3,31.5l-6.1-17.1h3.7l4.3,12.6l4.2-12.6H73l-6.1,17.1H63.3z"/>
	<path class="st0" d="M74.3,17.5v-3h3.3v3H74.3z M74.3,31.5V19.1h3.3v12.4H74.3z"/>
	<path class="st0" d="M86.6,19.1v2.6h-2.2v5c0,1,0,1.6,0.1,1.8c0,0.2,0.1,0.3,0.3,0.4s0.3,0.2,0.6,0.2c0.3,0,0.7-0.1,1.3-0.3
		l0.3,2.5c-0.8,0.3-1.6,0.5-2.6,0.5c-0.6,0-1.1-0.1-1.6-0.3c-0.5-0.2-0.8-0.5-1-0.8c-0.2-0.3-0.4-0.7-0.5-1.3
		c-0.1-0.4-0.1-1.1-0.1-2.3v-5.4h-1.5v-2.6h1.5v-2.5l3.3-1.9v4.4H86.6z"/>
	<path class="st0" d="M91.3,22.9l-3-0.5c0.3-1.2,0.9-2.1,1.7-2.7c0.8-0.6,2-0.9,3.6-0.9c1.5,0,2.5,0.2,3.3,0.5
		c0.7,0.3,1.2,0.8,1.5,1.3c0.3,0.5,0.4,1.5,0.4,2.9l0,3.8c0,1.1,0.1,1.9,0.2,2.4s0.3,1.1,0.6,1.7h-3.2c-0.1-0.2-0.2-0.5-0.3-1
		C96,30.3,96,30.2,96,30.2c-0.6,0.5-1.2,1-1.8,1.2c-0.6,0.3-1.3,0.4-2,0.4c-1.3,0-2.3-0.3-3-1c-0.7-0.7-1.1-1.6-1.1-2.6
		c0-0.7,0.2-1.3,0.5-1.9c0.3-0.5,0.8-1,1.4-1.3c0.6-0.3,1.5-0.5,2.6-0.8c1.5-0.3,2.6-0.6,3.2-0.8v-0.3c0-0.6-0.2-1.1-0.5-1.3
		c-0.3-0.3-0.9-0.4-1.8-0.4c-0.6,0-1,0.1-1.4,0.3C91.8,21.9,91.5,22.3,91.3,22.9z M95.7,25.6c-0.4,0.1-1.1,0.3-2,0.5
		c-0.9,0.2-1.5,0.4-1.8,0.6c-0.4,0.3-0.6,0.7-0.6,1.2c0,0.5,0.2,0.9,0.5,1.2s0.8,0.5,1.3,0.5c0.6,0,1.2-0.2,1.7-0.6
		c0.4-0.3,0.7-0.7,0.8-1.1c0.1-0.3,0.1-0.8,0.1-1.6V25.6z"/>
	<path class="st0" d="M102.2,31.5V14.4h3.3v17.1H102.2z"/>
	<path class="st0" d="M108.8,17.5v-3h3.3v3H108.8z M108.8,31.5V19.1h3.3v12.4H108.8z"/>
	<path class="st0" d="M115.4,17.5v-3h3.3v3H115.4z M115.4,31.5V19.1h3.3v12.4H115.4z"/>
</g>
</svg>
