<svg width="18" height="16" viewBox="0 0 18 16" fill="none" xmlns="http://www.w3.org/2000/svg">
<path fill-rule="evenodd" clip-rule="evenodd" d="M0.712987 0.307112C0.993243 0.191027 1.31583 0.255193 1.53033 0.469692L5 3.93936L8.46967 0.469692C8.76256 0.176799 9.23744 0.176799 9.53033 0.469692L13 3.93936L16.4697 0.469692C16.6842 0.255193 17.0068 0.191027 17.287 0.307112C17.5673 0.423198 17.75 0.696675 17.75 1.00002V12C17.75 12.4142 17.4142 12.75 17 12.75H1C0.585786 12.75 0.25 12.4142 0.25 12V1.00002C0.25 0.696675 0.432732 0.423198 0.712987 0.307112ZM1.75 2.81068V11.25H16.25V2.81068L13.5303 5.53035C13.2374 5.82325 12.7626 5.82325 12.4697 5.53035L9 2.06068L5.53033 5.53035C5.23744 5.82325 4.76256 5.82325 4.46967 5.53035L1.75 2.81068ZM0.25 15C0.25 14.5858 0.585786 14.25 1 14.25H17C17.4142 14.25 17.75 14.5858 17.75 15C17.75 15.4142 17.4142 15.75 17 15.75H1C0.585786 15.75 0.25 15.4142 0.25 15Z" fill="#7E74F1"/>
</svg>
